HIERARCHY
ROOT Hips
{
	OFFSET 0.000000 0.000000 0.000000
	CHANNELS 6 Xposition Yposition Zposition Zrotation Yrotation Xrotation 
	JOINT LeftUpLeg_virtual
	{
		OFFSET 0.000000 0.000000 0.000000
		CHANNELS 3 Zrotation Yrotation Xrotation
		JOINT LeftUpLeg
		{
			OFFSET 10.205400 -3.823500 0.155100
			CHANNELS 3 Zrotation Yrotation Xrotation
			JOINT LeftLeg
			{
				OFFSET 0.708757 -12.982077 0.567790
				CHANNELS 3 Zrotation Yrotation Xrotation
				JOINT LeftFoot
				{
					OFFSET -0.708756 -10.717838 -2.184338
					CHANNELS 3 Zrotation Yrotation Xrotation
					JOINT LeftToeBase
					{
						OFFSET 0.108149 -7.191104 7.560241
						CHANNELS 3 Zrotation Yrotation Xrotation
						End Site
						{
							OFFSET 0.000000 0.000000 0.000000
						}
					}
				}
			}
		}
	}
	JOINT RightUpLeg_virtual
	{
		OFFSET 0.000000 0.000000 0.000000
		CHANNELS 3 Zrotation Yrotation Xrotation
		JOINT RightUpLeg
		{
			OFFSET -10.205400 -3.823500 0.005500
			CHANNELS 3 Zrotation Yrotation Xrotation
			JOINT RightLeg
			{
				OFFSET -0.708756 -12.982134 0.610632
				CHANNELS 3 Zrotation Yrotation Xrotation
				JOINT RightFoot
				{
					OFFSET 0.708754 -10.717769 -1.945823
					CHANNELS 3 Zrotation Yrotation Xrotation
					JOINT RightToeBase
					{
						OFFSET -0.108140 -7.191069 7.372968
						CHANNELS 3 Zrotation Yrotation Xrotation
						End Site
						{
							OFFSET 0.000000 0.000000 0.000000
						}
					}
				}
			}
		}
	}
	JOINT Spine_virtual
	{
		OFFSET 0.000000 0.000000 0.000000
		CHANNELS 3 Zrotation Yrotation Xrotation
		JOINT Spine
		{
			OFFSET 0.000000 6.876099 0.125700
			CHANNELS 3 Zrotation Yrotation Xrotation
			JOINT Spine1
			{
				OFFSET 0.000000 8.022060 0.146608
				CHANNELS 3 Zrotation Yrotation Xrotation
				JOINT Spine2
				{
					OFFSET 0.000000 9.168068 0.167552
					CHANNELS 3 Zrotation Yrotation Xrotation
					JOINT Neck_virtual
					{
						OFFSET 0.000000 0.000000 0.000000
						CHANNELS 3 Zrotation Yrotation Xrotation
						JOINT Neck
						{
							OFFSET 0.000000 10.314075 0.188496
							CHANNELS 3 Zrotation Yrotation Xrotation
							JOINT Head
							{
								OFFSET 0.000000 7.643700 -2.377400
								CHANNELS 3 Zrotation Yrotation Xrotation
								End Site
								{
									OFFSET 0.000000 0.000000 0.000000
								}
							}
						}
					}
					JOINT LeftShoulder_virtual
					{
						OFFSET 0.000000 0.000000 0.000000
						CHANNELS 3 Zrotation Yrotation Xrotation
						JOINT LeftShoulder
						{
							OFFSET 4.392200 8.824978 0.174984
							CHANNELS 3 Zrotation Yrotation Xrotation
							JOINT LeftArm
							{
								OFFSET 8.771219 -2.981674 -0.026999
								CHANNELS 3 Zrotation Yrotation Xrotation
								JOINT LeftForeArm
								{
									OFFSET 8.512804 0.000000 -0.000000
									CHANNELS 3 Zrotation Yrotation Xrotation
									JOINT LeftHand
									{
										OFFSET 18.484802 0.000000 -0.000000
										CHANNELS 3 Zrotation Yrotation Xrotation
										End Site
										{
											OFFSET 0.000000 0.000000 0.000000
										}
									}
								}
							}
						}
					}
					JOINT RightShoulder_virtual
					{
						OFFSET 0.000000 0.000000 0.000000
						CHANNELS 3 Zrotation Yrotation Xrotation
						JOINT RightShoulder
						{
							OFFSET -4.392200 8.824993 0.141379
							CHANNELS 3 Zrotation Yrotation Xrotation
							JOINT RightArm
							{
								OFFSET -8.771282 -2.981682 -0.094208
								CHANNELS 3 Zrotation Yrotation Xrotation
								JOINT RightForeArm
								{
									OFFSET -8.494598 0.000000 0.000000
									CHANNELS 3 Zrotation Yrotation Xrotation
									JOINT RightHand
									{
										OFFSET -18.483803 0.000000 0.000001
										CHANNELS 3 Zrotation Yrotation Xrotation
										End Site
										{
											OFFSET 0.000000 0.000000 0.000000
										}
									}
								}
							}
						}
					}
				}
			}
		}
	}
}
MOTION
Frames: 14
Frame Time: 0.033333
6.320271 35.744041 8.727283 -179.485651 72.298167 -179.608266 -2.199515 -5.364050 12.038683 8.312567 2.864748 -39.568867 4.680267 2.956771 24.517609 -4.684025 2.620253 18.082473 0.000000 0.000000 0.000000 3.911311 -5.382643 7.967230 2.541409 -8.539008 -13.282064 -4.970656 -2.107428 20.879251 3.139722 10.323266 13.767873 0.000000 0.000000 0.000000 0.458010 -1.821929 6.779909 -4.066906 0.843652 5.484656 -1.124972 1.287785 8.471982 -0.020190 0.044605 0.020689 -1.351421 2.925219 9.476727 -2.837425 8.727508 9.278114 0.000000 0.000000 0.000000 -0.365927 3.561914 6.529751 -4.975625 -18.474106 -1.381002 -40.183413 -12.954899 5.730095 -39.950466 -88.315186 55.855276 0.000000 0.000000 0.000000 -3.653370 4.828320 5.964414 16.327714 12.476703 -0.233277 27.019235 11.400352 26.719966 -4.509523 81.527126 -2.571686 0.000000 0.000000 0.000000 
6.396351 35.777103 8.352197 -179.741633 71.633009 -179.826313 -2.526027 -5.025595 12.406065 8.258361 2.980736 -39.418524 4.631376 2.452262 23.154172 -3.971181 2.750210 19.164672 0.000000 0.000000 0.000000 3.508479 -4.881286 8.961968 2.497447 -8.253292 -13.251083 -5.183224 -1.688785 19.703574 3.688916 10.319686 14.028061 0.000000 0.000000 0.000000 -0.003249 -1.513054 7.914079 -4.262872 0.541676 6.067923 -1.002451 1.257487 8.406306 -0.023442 0.069766 -0.015004 -1.177380 2.887570 9.536280 -2.515222 8.587786 8.440827 0.000000 0.000000 0.000000 -0.246914 3.551228 6.527275 -4.674984 -19.502195 -1.290281 -39.854232 -14.573774 2.911793 -16.098211 -86.922476 31.965681 0.000000 0.000000 0.000000 -3.567262 4.811212 6.055849 16.295284 12.195269 -0.150653 27.491342 11.953512 27.378130 -3.349186 82.919166 -1.545993 0.000000 0.000000 0.000000 
6.510044 35.813469 7.859392 179.665490 70.783108 179.632732 -2.878431 -4.544637 12.689008 8.094112 2.558003 -39.465246 4.110079 1.686606 22.239921 -4.574856 1.723157 19.313813 0.000000 0.000000 0.000000 3.000537 -4.386032 10.269469 2.363864 -7.639158 -13.262243 -5.573685 -0.865919 18.319747 3.995390 10.011083 14.396780 0.000000 0.000000 0.000000 -0.538521 -1.117706 9.201936 -4.590457 0.241183 6.606613 -0.909904 1.221543 8.418060 0.026431 0.061309 -0.007304 -1.029395 2.795829 9.584831 -2.174824 8.426795 7.533713 0.000000 0.000000 0.000000 -0.117190 3.355430 6.532694 -4.369504 -20.725398 -1.240258 -39.916018 -15.037665 2.772465 -9.314898 -84.973557 25.074690 0.000000 0.000000 0.000000 -3.440606 4.648969 6.064944 16.290568 11.779281 -0.040858 28.117278 13.312779 26.396934 -1.600144 84.079998 0.012522 0.000000 0.000000 0.000000 
6.668447 35.835407 7.231424 179.684655 69.940195 179.683057 -3.548678 -3.961591 14.198051 7.615626 2.617657 -41.575078 3.827297 1.676237 23.343971 -4.284453 1.081946 18.121223 0.000000 0.000000 0.000000 2.720851 -3.804612 11.611319 2.100510 -7.051267 -13.164200 -5.979941 0.686604 17.058676 4.362324 9.559737 14.402361 0.000000 0.000000 0.000000 -1.039732 -0.862177 10.686154 -4.883410 -0.017847 6.987387 -0.815380 1.183053 8.366436 0.016242 0.015581 0.002060 -0.968631 2.823788 9.639482 -1.893049 8.133269 6.680082 0.000000 0.000000 0.000000 0.014641 3.414926 6.653897 -3.883356 -21.991321 -1.071931 -40.148289 -14.161551 4.480785 -7.117176 -83.267745 22.661471 0.000000 0.000000 0.000000 -3.257813 4.558419 6.118337 16.253181 11.439213 -0.009614 28.807907 15.235627 24.272127 -2.023942 84.609515 -0.606826 0.000000 0.000000 0.000000 
6.846590 35.856476 6.514808 179.509270 68.870840 179.642786 -4.329495 -3.606226 15.196519 7.149416 2.460254 -43.356668 3.344083 1.917500 25.127926 -4.127498 0.253502 16.468498 0.000000 0.000000 0.000000 2.449326 -3.757105 12.923150 1.669339 -6.170719 -13.001011 -6.549526 2.231658 15.595690 4.745658 9.027018 14.520050 0.000000 0.000000 0.000000 -1.534755 -0.735568 12.155774 -5.104815 -0.065961 7.264787 -0.727674 1.232604 8.347597 0.005215 -0.022972 -0.018010 -0.837046 2.649732 9.803542 -1.504811 7.827901 5.869173 0.000000 0.000000 0.000000 0.098924 3.326265 6.758950 -3.655644 -22.946526 -0.886305 -40.961618 -12.180284 6.550288 -7.935680 -82.761122 23.096961 0.000000 0.000000 0.000000 -3.098186 4.561552 6.232189 16.154026 11.159470 0.188591 29.118480 17.343223 21.456402 -2.945024 84.016012 -1.688360 0.000000 0.000000 0.000000 
7.035581 35.881969 5.752367 179.548366 68.373520 179.726237 -4.764402 -3.122152 16.090401 6.374939 2.795959 -44.724386 2.721040 3.303789 26.723412 -3.455092 -0.104768 15.476010 0.000000 0.000000 0.000000 2.244997 -3.242628 14.208879 1.151582 -4.851193 -12.429203 -7.396046 3.697981 13.562507 5.228265 8.567801 15.012558 0.000000 0.000000 0.000000 -2.049516 -0.768740 13.668348 -5.332763 0.181886 7.517839 -0.739947 1.428284 8.296330 0.017386 -0.019169 0.000882 -0.879935 2.987507 9.900791 -1.139034 7.344409 5.272965 0.000000 0.000000 0.000000 0.078623 3.666514 6.802815 -3.474073 -23.551298 -0.668514 -42.124410 -9.903115 7.226052 -10.306840 -83.386037 24.896480 0.000000 0.000000 0.000000 -3.106921 4.781175 6.376779 16.033529 11.147341 0.198662 29.348479 19.395398 18.595311 -3.360847 82.287565 -2.188249 0.000000 0.000000 0.000000 
7.209025 35.919003 5.012958 179.380999 67.607651 179.554964 -5.237973 -3.484792 17.066990 5.515419 3.706079 -45.855964 2.249677 5.459924 28.541496 -2.802471 -0.316342 14.227792 0.000000 0.000000 0.000000 1.792977 -3.272438 15.526161 0.713573 -4.580879 -11.868256 -8.049083 4.308182 11.294966 5.668484 8.085206 15.991462 0.000000 0.000000 0.000000 -2.476933 -1.036151 15.219294 -5.465050 0.621015 7.839949 -0.783950 1.688907 8.210511 0.033617 -0.020955 0.031234 -0.951637 3.435731 9.952649 -0.772771 6.647646 4.817017 0.000000 0.000000 0.000000 0.010347 3.933994 6.852140 -3.460748 -23.777707 -0.638029 -44.082567 -7.923592 5.571790 -15.653663 -84.761719 29.445229 0.000000 0.000000 0.000000 -3.178930 5.061110 6.355765 15.944870 11.122626 0.485911 29.486398 21.136169 15.789485 -3.725177 79.592474 -2.556653 0.000000 0.000000 0.000000 
7.347271 35.972847 4.354840 179.161695 66.757429 179.365836 -5.729281 -4.057566 18.080858 4.945820 4.203175 -47.109727 1.973320 6.860274 30.407428 -2.429826 -0.524688 13.174313 0.000000 0.000000 0.000000 1.470887 -3.874278 16.769957 0.338797 -4.979159 -11.703398 -8.427229 4.650129 9.327198 6.204164 7.792129 17.039065 0.000000 0.000000 0.000000 -2.825068 -1.527910 16.613289 -5.511050 1.139082 8.275636 -0.881277 1.951108 8.161975 0.000278 -0.066429 -0.013844 -1.066617 3.796192 9.997554 -0.410084 5.763126 4.331168 0.000000 0.000000 0.000000 -0.122340 4.267544 6.832268 -3.807948 -23.658227 -0.764862 -46.845078 -6.771667 1.879450 -18.223228 -85.910406 31.066303 0.000000 0.000000 0.000000 -3.255800 5.401865 6.335184 15.808802 11.213919 0.674557 29.933096 22.586384 13.622066 -4.787337 76.050741 -3.551917 0.000000 0.000000 0.000000 
7.457096 36.031971 3.817472 179.225817 66.112468 179.440326 -6.213289 -4.561770 19.276983 4.536530 4.369423 -48.565442 1.810760 7.628996 31.797229 -2.158383 -0.606948 12.828372 0.000000 0.000000 0.000000 1.168502 -5.218411 17.048695 -0.212182 -5.530094 -11.315551 -8.622621 4.936025 8.033054 6.781799 7.825979 18.023013 0.000000 0.000000 0.000000 -3.098573 -2.096961 17.959376 -5.503738 1.733949 8.791139 -1.015495 2.275038 8.066605 0.012171 -0.067143 -0.030409 -1.217490 4.178011 9.925457 0.003599 4.827164 3.834724 0.000000 0.000000 0.000000 -0.383095 4.697557 6.704891 -4.359815 -23.423094 -0.855965 -49.972850 -6.848836 -3.184486 -15.453416 -85.785783 27.326036 0.000000 0.000000 0.000000 -3.468565 5.797928 6.207085 15.558350 11.415545 0.888638 30.656683 24.040763 11.934682 -5.200471 71.993117 -3.875746 0.000000 0.000000 0.000000 
7.529824 36.077442 3.421274 179.141710 65.610148 179.499475 -6.624578 -5.149141 20.425534 4.190170 4.720012 -49.950451 1.773144 8.067906 32.474705 -1.767518 -0.403814 13.349380 0.000000 0.000000 0.000000 0.918534 -6.435685 17.352625 -0.647923 -5.841799 -11.155102 -8.163177 4.854843 7.732918 7.470186 8.330933 17.706015 0.000000 0.000000 0.000000 -3.365544 -2.684399 19.253274 -5.530878 2.305038 9.277460 -1.207649 2.633108 7.884476 0.028051 -0.020360 0.045887 -1.343689 4.416551 9.725125 0.421259 3.898509 3.301071 0.000000 0.000000 0.000000 -0.573160 5.093134 6.524423 -4.833930 -23.458922 -1.046580 -53.400366 -8.100211 -7.949314 -6.118299 -83.511514 17.078722 0.000000 0.000000 0.000000 -3.623635 6.197068 5.976265 15.166971 11.680315 1.224533 31.779733 25.444546 10.855430 -5.734145 67.641891 -4.330938 0.000000 0.000000 0.000000 
7.578977 36.103394 3.176941 179.409631 64.791120 179.826286 -6.958727 -6.077546 21.409740 4.019063 4.925223 -51.406555 1.770312 7.730096 33.235560 -1.343861 -0.092238 13.712400 0.000000 0.000000 0.000000 0.714163 -7.644147 17.852733 -0.954911 -6.639065 -10.754549 -7.322181 4.313166 7.581247 7.935327 8.904501 17.235482 0.000000 0.000000 0.000000 -3.546908 -3.399675 20.557310 -5.477250 2.691014 9.855253 -1.357946 2.889725 7.714419 0.027131 -0.033908 0.005519 -1.526247 4.849060 9.541083 0.705832 2.971379 2.503602 0.000000 0.000000 0.000000 -0.931956 5.469607 6.343956 -5.133371 -23.782307 -1.327743 -55.945325 -10.340157 -11.727786 -1.117786 -78.702023 11.291857 0.000000 0.000000 0.000000 -3.783249 6.576925 5.877981 14.690951 12.159846 1.436030 33.392692 27.030332 10.514481 -6.074319 63.407815 -4.582367 0.000000 0.000000 0.000000 
7.616119 36.091969 3.079039 179.653537 64.182413 -179.845055 -7.225883 -6.691501 22.209255 3.998358 4.968996 -52.952281 1.702831 6.808568 34.034129 -0.912438 0.261812 14.133653 0.000000 0.000000 0.000000 0.065836 -8.136234 18.597850 -0.844751 -8.998771 -10.087646 -6.210875 1.921310 8.093259 7.916427 9.460506 17.186370 0.000000 0.000000 0.000000 -3.776950 -3.943224 21.805457 -5.490958 3.020651 10.412848 -1.517269 3.149115 7.501722 0.004558 -0.008541 0.025754 -1.686401 4.818348 9.362299 0.918269 2.370838 1.692356 0.000000 0.000000 0.000000 -1.163751 5.721756 6.123647 -4.918225 -24.631684 -1.595388 -57.542554 -13.063046 -14.117706 1.690682 -72.256476 7.860527 0.000000 0.000000 0.000000 -3.960270 6.813210 5.749628 14.161874 12.678489 1.419294 35.740956 28.587576 11.055156 -6.131331 59.635112 -4.592185 0.000000 0.000000 0.000000 
7.601499 36.032310 3.100066 179.445435 63.606943 -179.882608 -7.561224 -7.201594 22.903795 4.096316 4.926139 -54.555719 1.596403 5.875529 34.877890 -0.632573 0.497119 14.429709 0.000000 0.000000 0.000000 -0.705921 -8.293726 19.347909 -0.940101 -9.854678 -9.272132 -5.581097 0.432560 9.256439 7.499665 9.422291 16.999169 0.000000 0.000000 0.000000 -4.093166 -4.246611 22.886111 -5.621568 3.245026 10.925051 -1.686022 3.298457 7.310141 0.039000 -0.044647 0.051988 -1.766654 5.050030 9.072067 1.121244 1.689148 0.772643 0.000000 0.000000 0.000000 -1.333775 5.935215 5.932004 -4.265001 -25.547696 -2.230206 -58.588065 -15.623453 -15.521656 2.016626 -65.179320 7.073266 0.000000 0.000000 0.000000 -4.047556 7.060528 5.591677 13.628462 13.359613 1.542968 38.386326 30.070188 11.982788 -6.375457 56.730113 -4.785387 0.000000 0.000000 0.000000 
7.523251 35.938347 3.176742 179.371901 63.270255 -179.899287 -7.801839 -7.355572 23.492036 4.285208 5.025777 -56.096098 1.586006 5.514711 35.762724 -0.634219 0.459895 14.579923 0.000000 0.000000 0.000000 -0.978465 -8.338072 20.075275 -1.607994 -10.699216 -8.662953 -5.371770 0.641349 10.287645 7.198735 9.844379 16.655391 0.000000 0.000000 0.000000 -4.405141 -4.430215 23.784901 -5.842597 3.442482 11.409375 -1.831446 3.455322 7.116310 0.005014 -0.000469 0.087274 -1.814320 5.088782 8.840311 1.149155 1.274859 0.116515 0.000000 0.000000 0.000000 -1.372682 6.022779 5.657785 -3.436739 -26.512851 -2.614672 -59.367601 -17.559822 -16.439550 2.213936 -59.314456 6.596275 0.000000 0.000000 0.000000 -4.074659 7.180624 5.330285 12.976102 13.879266 1.544394 41.262115 31.152705 13.338730 -6.557643 54.800483 -4.911327 0.000000 0.000000 0.000000 
